<svg width="1000" height="1000" viewBox="0 0 1000 1000" fill="none" xmlns="http://www.w3.org/2000/svg">
<rect width="1000" height="1000" rx="500" fill="white"/>
<g clip-path="url(#clip0_1206_5689)">
<path d="M247.721 515.182C247.725 522.397 245.589 529.451 241.584 535.452C237.579 541.453 231.884 546.131 225.221 548.895C218.557 551.658 211.224 552.383 204.148 550.978C197.072 549.572 190.572 546.1 185.47 540.999C180.368 535.899 176.893 529.399 175.484 522.323C174.075 515.247 174.796 507.912 177.556 501.246C180.316 494.579 184.99 488.881 190.988 484.873C196.986 480.864 204.038 478.724 211.251 478.724C220.921 478.724 230.194 482.564 237.033 489.401C243.872 496.238 247.716 505.511 247.721 515.182M827.169 515.182C827.172 522.398 825.036 529.453 821.03 535.454C817.024 541.455 811.328 546.133 804.664 548.896C797.999 551.659 790.665 552.383 783.589 550.976C776.512 549.57 770.012 546.095 764.911 540.993C759.809 535.89 756.336 529.389 754.929 522.312C753.523 515.234 754.246 507.899 757.009 501.233C759.771 494.567 764.449 488.87 770.449 484.864C776.449 480.857 783.503 478.72 790.717 478.724C800.37 478.748 809.62 482.6 816.439 489.434C823.258 496.268 827.09 505.527 827.095 515.182M537.454 659.081C537.458 666.297 535.321 673.351 531.315 679.353C527.31 685.354 521.614 690.032 514.949 692.795C508.285 695.558 500.95 696.282 493.874 694.875C486.798 693.469 480.298 689.994 475.196 684.892C470.095 679.789 466.621 673.288 465.215 666.211C463.808 659.133 464.532 651.798 467.294 645.132C470.057 638.466 474.734 632.769 480.734 628.763C486.735 624.756 493.788 622.619 501.003 622.623C510.669 622.628 519.937 626.47 526.772 633.307C533.607 640.143 537.449 649.413 537.454 659.081M391.594 588.042C391.594 595.257 389.455 602.309 385.448 608.307C381.44 614.306 375.745 618.981 369.081 621.742C362.417 624.503 355.084 625.225 348.009 623.818C340.935 622.41 334.437 618.936 329.336 613.835C324.236 608.734 320.763 602.234 319.355 595.158C317.948 588.083 318.67 580.749 321.431 574.083C324.191 567.418 328.866 561.721 334.863 557.713C340.86 553.705 347.911 551.566 355.124 551.566C364.797 551.566 374.073 555.409 380.912 562.25C387.752 569.09 391.594 578.368 391.594 588.042M681.327 588.042C681.345 595.264 679.22 602.328 675.22 608.34C671.221 614.352 665.527 619.042 658.86 621.814C652.194 624.587 644.854 625.318 637.772 623.915C630.689 622.512 624.183 619.038 619.076 613.933C613.969 608.828 610.493 602.322 609.086 595.239C607.68 588.156 608.407 580.815 611.176 574.146C613.945 567.476 618.631 561.779 624.64 557.776C630.649 553.773 637.711 551.643 644.931 551.658C654.574 551.677 663.818 555.516 670.639 562.335C677.46 569.154 681.303 578.397 681.327 588.042M235.89 625.586C235.886 630.46 234.437 635.223 231.727 639.274C229.017 643.324 225.167 646.48 220.663 648.341C216.16 650.203 211.205 650.687 206.427 649.733C201.648 648.779 197.26 646.428 193.817 642.979C190.374 639.531 188.03 635.138 187.083 630.357C186.136 625.576 186.628 620.622 188.496 616.12C190.364 611.619 193.525 607.772 197.579 605.068C201.632 602.363 206.397 600.921 211.27 600.925C214.505 600.927 217.709 601.567 220.697 602.808C223.685 604.048 226.4 605.866 228.686 608.156C230.972 610.446 232.785 613.163 234.021 616.154C235.257 619.145 235.892 622.35 235.89 625.586M815.337 625.586C815.333 630.46 813.885 635.223 811.174 639.274C808.464 643.324 804.614 646.48 800.11 648.341C795.607 650.203 790.653 650.687 785.874 649.733C781.096 648.779 776.707 646.428 773.264 642.979C769.821 639.531 767.478 635.138 766.531 630.357C765.583 625.576 766.075 620.622 767.943 616.12C769.811 611.619 772.972 607.772 777.026 605.068C781.08 602.363 785.844 600.921 790.717 600.925C797.25 600.93 803.514 603.528 808.134 608.148C812.753 612.768 815.351 619.033 815.355 625.568M525.623 771.436C525.626 776.311 524.184 781.078 521.478 785.133C518.772 789.189 514.924 792.35 510.422 794.217C505.919 796.085 500.963 796.574 496.182 795.624C491.401 794.674 487.009 792.326 483.563 788.879C480.116 785.432 477.769 781.039 476.819 776.257C475.869 771.475 476.358 766.519 478.225 762.015C480.092 757.512 483.253 753.663 487.308 750.957C491.362 748.25 496.128 746.808 501.003 746.811C507.529 746.821 513.786 749.419 518.401 754.034C523.016 758.65 525.613 764.908 525.623 771.436M379.781 698.465C379.781 703.339 378.335 708.105 375.627 712.157C372.919 716.21 369.07 719.369 364.567 721.233C360.064 723.098 355.109 723.585 350.329 722.633C345.549 721.68 341.159 719.331 337.714 715.883C334.269 712.435 331.924 708.042 330.976 703.261C330.027 698.48 330.518 693.524 332.385 689.022C334.253 684.519 337.414 680.672 341.468 677.966C345.522 675.261 350.287 673.818 355.161 673.822C358.396 673.822 361.599 674.46 364.587 675.698C367.575 676.937 370.29 678.752 372.576 681.041C374.863 683.329 376.676 686.046 377.912 689.036C379.148 692.026 379.783 695.23 379.781 698.465ZM669.514 698.465C669.525 703.343 668.088 708.115 665.384 712.176C662.681 716.237 658.834 719.404 654.33 721.276C649.825 723.148 644.867 723.641 640.082 722.692C635.298 721.743 630.903 719.395 627.454 715.945C624.005 712.495 621.657 708.099 620.708 703.314C619.759 698.529 620.252 693.569 622.124 689.064C623.995 684.559 627.162 680.711 631.222 678.007C635.282 675.304 640.053 673.866 644.931 673.877C651.443 673.897 657.683 676.494 662.286 681.101C666.889 685.709 669.481 691.951 669.495 698.465M224.077 712.304C224.077 714.852 223.321 717.343 221.906 719.462C220.491 721.58 218.479 723.231 216.125 724.206C213.772 725.181 211.182 725.437 208.683 724.939C206.185 724.442 203.89 723.215 202.089 721.414C200.287 719.612 199.06 717.317 198.563 714.818C198.067 712.319 198.322 709.728 199.296 707.374C200.271 705.02 201.922 703.008 204.04 701.593C206.159 700.177 208.649 699.422 211.196 699.422C214.612 699.422 217.889 700.779 220.304 703.195C222.72 705.611 224.077 708.888 224.077 712.304M803.524 712.304C803.524 714.852 802.769 717.343 801.353 719.462C799.938 721.58 797.926 723.231 795.573 724.206C793.219 725.181 790.629 725.437 788.131 724.939C785.632 724.442 783.337 723.215 781.536 721.414C779.735 719.612 778.508 717.317 778.011 714.818C777.514 712.319 777.769 709.728 778.744 707.374C779.719 705.02 781.37 703.008 783.488 701.593C785.606 700.177 788.096 699.422 790.644 699.422C794.06 699.422 797.336 700.779 799.751 703.195C802.167 705.611 803.524 708.888 803.524 712.304M513.791 858.191C513.791 860.739 513.036 863.23 511.62 865.348C510.205 867.467 508.193 869.118 505.84 870.093C503.486 871.068 500.897 871.323 498.398 870.826C495.899 870.329 493.604 869.102 491.803 867.3C490.002 865.499 488.775 863.203 488.278 860.704C487.781 858.205 488.036 855.615 489.011 853.261C489.986 850.907 491.637 848.895 493.755 847.479C495.873 846.064 498.363 845.308 500.911 845.308C504.327 845.308 507.603 846.666 510.019 849.082C512.434 851.498 513.791 854.774 513.791 858.191ZM367.949 785.257C367.949 787.805 367.194 790.296 365.779 792.414C364.363 794.533 362.352 796.184 359.998 797.159C357.645 798.134 355.055 798.389 352.556 797.892C350.058 797.395 347.763 796.168 345.961 794.366C344.16 792.565 342.933 790.269 342.436 787.77C341.939 785.271 342.194 782.681 343.169 780.327C344.144 777.973 345.795 775.961 347.913 774.545C350.031 773.13 352.522 772.374 355.069 772.374C358.485 772.374 361.761 773.732 364.177 776.148C366.592 778.563 367.949 781.84 367.949 785.257M657.682 785.257C657.682 787.805 656.927 790.296 655.512 792.414C654.096 794.533 652.085 796.184 649.731 797.159C647.378 798.134 644.788 798.389 642.289 797.892C639.791 797.395 637.496 796.168 635.694 794.366C633.893 792.565 632.666 790.269 632.169 787.77C631.672 785.271 631.927 782.681 632.902 780.327C633.877 777.973 635.528 775.961 637.646 774.545C639.764 773.13 642.255 772.374 644.802 772.374C648.218 772.374 651.494 773.732 653.91 776.148C656.325 778.563 657.682 781.84 657.682 785.257M549.249 234.285C549.249 244.035 546.358 253.565 540.942 261.671C535.525 269.776 527.827 276.093 518.821 279.822C509.815 283.552 499.905 284.525 490.345 282.621C480.786 280.716 472.006 276.019 465.116 269.122C458.226 262.226 453.536 253.441 451.638 243.878C449.741 234.315 450.722 224.404 454.458 215.399C458.193 206.394 464.514 198.699 472.623 193.288C480.731 187.877 490.262 184.993 500.009 185C513.072 185.01 525.596 190.207 534.829 199.448C544.062 208.69 549.249 221.22 549.249 234.285M549.249 380.08C549.249 389.828 546.358 399.358 540.943 407.463C535.527 415.568 527.831 421.885 518.825 425.615C509.82 429.345 499.911 430.32 490.352 428.417C480.793 426.514 472.013 421.818 465.122 414.923C458.232 408.029 453.54 399.245 451.641 389.684C449.741 380.122 450.72 370.212 454.452 361.206C458.185 352.201 464.503 344.505 472.609 339.092C480.715 333.678 490.244 330.791 499.991 330.795C513.056 330.799 525.585 335.994 534.822 345.236C544.06 354.479 549.249 367.012 549.249 380.08M549.249 523.997C549.249 533.746 546.358 543.275 540.943 551.381C535.527 559.486 527.831 565.803 518.825 569.533C509.82 573.262 499.911 574.237 490.352 572.334C480.793 570.431 472.013 565.735 465.122 558.841C458.232 551.946 453.54 543.163 451.641 533.601C449.741 524.039 450.72 514.129 454.452 505.124C458.185 496.118 464.503 488.422 472.609 483.009C480.715 477.596 490.244 474.708 499.991 474.712C506.466 474.714 512.878 475.993 518.859 478.476C524.841 480.958 530.274 484.596 534.849 489.18C539.423 493.764 543.05 499.205 545.521 505.192C547.992 511.179 549.258 517.594 549.249 524.071M839 380.08C839 389.828 836.11 399.356 830.695 407.461C825.281 415.566 817.585 421.883 808.581 425.613C799.577 429.344 789.669 430.32 780.11 428.418C770.552 426.516 761.771 421.822 754.88 414.93C747.989 408.037 743.295 399.255 741.394 389.695C739.493 380.134 740.469 370.225 744.198 361.219C747.928 352.213 754.244 344.516 762.347 339.101C770.451 333.685 779.978 330.795 789.724 330.795C802.793 330.795 815.326 335.987 824.567 345.23C833.808 354.473 839 367.009 839 380.08M259.553 380.08C259.567 389.831 256.69 399.367 251.284 407.481C245.878 415.596 238.187 421.924 229.185 425.666C220.182 429.407 210.272 430.394 200.708 428.501C191.145 426.607 182.358 421.919 175.459 415.029C168.56 408.14 163.86 399.358 161.952 389.796C160.045 380.233 161.016 370.32 164.744 361.31C168.471 352.3 174.787 344.598 182.892 339.179C190.997 333.761 200.527 330.868 210.276 330.868C223.332 330.868 235.855 336.051 245.094 345.277C254.333 354.504 259.533 367.021 259.553 380.08M405.394 307.146C405.409 316.893 402.533 326.427 397.131 334.54C391.728 342.653 384.042 348.981 375.043 352.725C366.045 356.468 356.138 357.459 346.577 355.572C337.015 353.684 328.228 349.004 321.326 342.121C314.425 335.239 309.719 326.464 307.803 316.907C305.887 307.349 306.848 297.438 310.565 288.427C314.281 279.415 320.585 271.709 328.68 266.281C336.776 260.853 346.298 257.949 356.044 257.934C369.113 257.934 381.647 263.127 390.888 272.369C400.129 281.612 405.321 294.148 405.321 307.219M405.321 451.118C405.321 460.866 402.431 470.395 397.016 478.5C391.602 486.605 383.906 492.922 374.902 496.652C365.898 500.382 355.99 501.358 346.431 499.457C336.872 497.555 328.092 492.861 321.201 485.968C314.309 479.076 309.616 470.294 307.715 460.733C305.814 451.173 306.789 441.263 310.519 432.258C314.249 423.252 320.564 415.555 328.668 410.139C336.771 404.724 346.298 401.833 356.044 401.833C369.113 401.833 381.647 407.026 390.888 416.268C400.129 425.511 405.321 438.047 405.321 451.118M695.127 307.219C695.127 316.967 692.237 326.496 686.823 334.601C681.408 342.706 673.712 349.023 664.708 352.753C655.704 356.483 645.796 357.459 636.237 355.558C626.679 353.656 617.899 348.962 611.007 342.069C604.116 335.177 599.423 326.395 597.521 316.834C595.62 307.274 596.596 297.364 600.325 288.359C604.055 279.353 610.371 271.656 618.474 266.24C626.578 260.825 636.105 257.934 645.851 257.934C658.92 257.934 671.453 263.127 680.694 272.369C689.936 281.612 695.127 294.148 695.127 307.219M695.127 451.118C695.127 460.866 692.237 470.395 686.823 478.5C681.408 486.605 673.712 492.922 664.708 496.652C655.704 500.382 645.796 501.358 636.237 499.457C626.679 497.555 617.899 492.861 611.007 485.968C604.116 479.076 599.423 470.294 597.521 460.733C595.62 451.173 596.596 441.263 600.325 432.258C604.055 423.252 610.371 415.555 618.474 410.139C626.578 404.724 636.105 401.833 645.851 401.833C658.92 401.833 671.453 407.026 680.694 416.268C689.936 425.511 695.127 438.047 695.127 451.118" fill="#141414"/>
</g>
<defs>
<clipPath id="clip0_1206_5689">
<rect width="678" height="686" fill="white" transform="translate(161 185)"/>
</clipPath>
</defs>
</svg>
