<svg width="952" height="923" viewBox="0 0 952 923" fill="none" xmlns="http://www.w3.org/2000/svg">
<path d="M491.746 916.097C745.341 916.097 949.795 710.763 949.795 458.049C949.795 205.335 745.341 0 491.746 0C238.152 0 33.6978 204.454 33.6978 458.049C33.6978 711.643 238.152 916.097 491.746 916.097V916.097Z" fill="#141E32"/>
<path fill-rule="evenodd" clip-rule="evenodd" d="M390.077 645.23C405.49 622.295 436.549 616.157 459.474 631.565C482.378 646.955 488.448 678.046 473.036 700.98C457.623 723.915 426.555 730.017 403.652 714.627C380.73 699.223 374.664 668.169 390.077 645.23" fill="white"/>
<path fill-rule="evenodd" clip-rule="evenodd" d="M759.024 143.931C773.16 120.188 803.837 112.36 827.568 126.487C851.28 140.601 859.045 171.31 844.908 195.058C830.772 218.802 800.085 226.598 776.378 212.484C752.648 198.356 744.887 167.679 759.024 143.936" fill="#33EEFF"/>
<path fill-rule="evenodd" clip-rule="evenodd" d="M250.441 386.252C261.14 370.331 282.709 366.085 298.603 376.766C314.505 387.451 318.72 409.029 308.021 424.95C297.322 440.87 275.758 445.112 259.855 434.422C243.962 423.741 239.742 402.168 250.437 386.252" fill="white"/>
<path fill-rule="evenodd" clip-rule="evenodd" d="M327.909 519.74C338.604 503.828 360.168 499.573 376.075 510.263C391.978 520.949 396.183 542.522 385.489 558.438C374.785 574.367 353.23 578.604 337.328 567.919C321.421 557.229 317.201 535.669 327.905 519.74" fill="white"/>
<path fill-rule="evenodd" clip-rule="evenodd" d="M99.1364 365.999C109.831 350.088 131.404 345.837 147.298 356.518C163.205 367.208 167.415 388.781 156.721 404.697C146.017 420.627 124.462 424.864 108.555 414.174C92.6613 403.493 88.4374 381.929 99.1409 365.999" fill="white"/>
<path fill-rule="evenodd" clip-rule="evenodd" d="M166.948 284.415C174.744 272.818 190.463 269.717 202.051 277.504C213.645 285.296 216.714 301.019 208.917 312.621C201.117 324.228 185.407 327.319 173.81 319.528C162.226 311.74 159.147 296.027 166.948 284.415Z" fill="white"/>
<path fill-rule="evenodd" clip-rule="evenodd" d="M470.758 572.75C477.974 562.01 492.547 559.125 503.286 566.346C514.039 573.572 516.884 588.158 509.667 598.897C502.432 609.664 487.865 612.53 477.107 605.3C466.368 598.084 463.523 583.516 470.758 572.75Z" fill="white"/>
<path fill-rule="evenodd" clip-rule="evenodd" d="M719.549 244.307C726.168 233.19 740.556 229.51 751.677 236.128C762.812 242.756 766.447 257.163 759.828 268.284C753.192 279.432 738.803 283.09 727.669 276.462C716.547 269.843 712.912 255.455 719.549 244.307" fill="#33EEFF"/>
<path fill-rule="evenodd" clip-rule="evenodd" d="M319.462 303.72C326.692 292.958 341.277 290.086 352.008 297.294C362.743 304.511 365.601 319.105 358.371 329.863C351.145 340.616 336.564 343.465 325.829 336.248C315.103 329.041 312.236 314.468 319.462 303.715" fill="white"/>
<path fill-rule="evenodd" clip-rule="evenodd" d="M395.896 438.749C403.126 427.992 417.69 425.129 428.429 432.346C439.173 439.567 442.031 454.139 434.805 464.897C427.571 475.659 412.994 478.525 402.25 471.304C391.51 464.088 388.666 449.515 395.896 438.749" fill="white"/>
<path fill-rule="evenodd" clip-rule="evenodd" d="M526.163 510.479C529.928 504.875 537.504 503.379 543.09 507.135C548.684 510.897 550.162 518.473 546.397 524.076C542.64 529.666 535.073 531.153 529.479 527.392C523.893 523.64 522.41 516.069 526.167 510.479" fill="white"/>
<path fill-rule="evenodd" clip-rule="evenodd" d="M686.454 307.503C689.91 301.702 697.387 299.797 703.17 303.239C708.962 306.685 710.854 314.171 707.398 319.972C703.952 325.76 696.479 327.656 690.687 324.21C684.904 320.768 683.008 313.291 686.454 307.503Z" fill="#33EEFF"/>
<path fill-rule="evenodd" clip-rule="evenodd" d="M874.453 218.447C881.67 207.707 896.242 204.822 906.982 212.043C917.734 219.269 920.579 233.855 913.362 244.594C906.128 255.361 891.56 258.227 880.802 250.997C870.063 243.781 867.219 229.213 874.453 218.447" fill="#33EEFF"/>
<path fill-rule="evenodd" clip-rule="evenodd" d="M837.948 279.738C841.713 274.135 849.289 272.638 854.875 276.395C860.469 280.156 861.947 287.732 858.182 293.335C854.425 298.925 846.858 300.413 841.264 296.651C835.678 292.899 834.196 285.328 837.952 279.738" fill="#33EEFF"/>
<path fill-rule="evenodd" clip-rule="evenodd" d="M720.294 62.4819C727.03 51.4369 741.463 47.914 752.508 54.6542C763.571 61.4035 767.049 75.85 760.314 86.895C753.56 97.9715 739.131 101.472 728.068 94.7272C717.019 87.987 713.541 73.5629 720.294 62.4864" fill="#33EEFF"/>
<path fill-rule="evenodd" clip-rule="evenodd" d="M686.521 125.319C690.04 119.554 697.54 117.729 703.282 121.234C709.034 124.744 710.845 132.248 707.331 138.013C703.821 143.765 696.326 145.58 690.575 142.071C684.827 138.566 683.012 131.071 686.521 125.319Z" fill="#33EEFF"/>
<path fill-rule="evenodd" clip-rule="evenodd" d="M222.532 222.724C226.289 217.134 233.874 215.643 239.45 219.39C245.054 223.156 246.519 230.732 242.762 236.322C238.997 241.925 231.439 243.417 225.835 239.651C220.259 235.904 218.767 228.328 222.528 222.729" fill="white"/>
<path fill-rule="evenodd" clip-rule="evenodd" d="M169.379 486.708C183.83 465.202 212.975 459.469 234.449 473.897C255.946 488.344 261.644 517.493 247.193 538.999C232.728 560.518 203.588 566.256 182.091 551.81C160.617 537.377 154.914 508.227 169.379 486.708" fill="white"/>
<path fill-rule="evenodd" clip-rule="evenodd" d="M308.488 758.048C326.408 731.383 362.509 724.279 389.138 742.172C415.766 760.065 422.83 796.184 404.914 822.848C387.003 849.504 350.884 856.613 324.256 838.719C297.628 820.826 290.577 784.703 308.488 758.052" fill="#32B0E2"/>
<path fill-rule="evenodd" clip-rule="evenodd" d="M139.43 732.39C160.226 701.448 202.137 693.193 233.043 713.967C263.954 734.74 272.141 776.66 251.35 807.602C230.54 838.567 188.643 846.799 157.737 826.025C126.826 805.252 118.625 763.35 139.43 732.39" fill="#32B0E2"/>
<path fill-rule="evenodd" clip-rule="evenodd" d="M52.786 597.405C73.5819 566.463 115.493 558.209 146.399 578.982C177.31 599.755 185.497 641.675 164.705 672.617C143.896 703.582 101.999 711.814 71.0925 691.041C40.1818 670.267 31.9812 628.366 52.786 597.405" fill="white"/>
<path fill-rule="evenodd" clip-rule="evenodd" d="M244.231 620.722C258.691 599.207 287.832 593.465 309.32 607.907C330.812 622.349 336.505 651.498 322.045 673.013C307.59 694.523 278.449 700.261 256.961 685.819C235.469 671.377 229.776 642.228 244.231 620.718" fill="white"/>
<path fill-rule="evenodd" clip-rule="evenodd" d="M9.25786 462.816C26.0231 437.873 59.8097 431.223 84.7216 447.965C109.633 464.708 116.234 498.499 99.4692 523.443C82.713 548.377 48.9309 555.036 24.019 538.293C-0.892939 521.551 -7.50287 487.755 9.25786 462.816" fill="white"/>
<path fill-rule="evenodd" clip-rule="evenodd" d="M950.676 455.415C950.676 451.906 950.676 448.397 947.167 446.64C941.9 443.13 937.514 440.497 932.248 438.74C918.21 433.474 905.044 434.354 892.759 442.249C883.983 448.392 876.088 454.535 868.189 461.553C862.922 466.82 857.661 472.082 853.27 477.348C850.637 479.981 847.128 483.491 844.495 486.124C840.109 490.51 834.843 494.023 828.7 494.023C808.52 496.657 790.968 490.514 775.174 477.353C772.54 474.719 769.907 472.086 768.155 467.701C766.398 464.191 768.155 461.558 769.912 458.925C771.669 456.292 774.297 457.168 776.931 458.049C779.564 458.925 782.197 460.682 784.83 462.434C798.868 474.719 815.543 476.472 833.09 472.962C847.128 469.453 855.027 459.801 861.17 447.516C872.579 424.702 859.413 394.866 833.966 388.723C813.786 383.457 794.478 387.847 776.054 395.742C754.993 405.394 737.446 419.436 719.895 434.35C690.058 459.797 661.102 486.124 635.655 515.956C602.309 556.321 568.967 596.686 537.378 638.804C496.137 692.33 447.872 739.714 389.96 776.57C361.88 794.121 332.048 809.035 299.578 817.811C272.374 824.83 244.294 827.463 215.338 827.463H214.462C213.586 827.463 212.705 827.463 210.953 828.339C328.538 914.331 456.648 940.659 596.171 911.703V910.826L593.538 908.193L589.152 903.807C565.458 879.237 548.787 850.281 542.644 816.935C535.625 780.96 542.644 748.49 563.705 719.534C577.743 700.23 597.052 687.068 620.741 682.678C634.779 680.045 647.945 678.293 661.982 677.412C680.41 675.655 697.957 671.269 713.757 660.741C720.775 656.355 727.794 650.213 733.937 644.07C734.813 643.194 735.694 642.313 736.57 642.313C759.383 621.252 783.954 603.705 812.034 589.663C852.399 569.483 895.397 560.707 939.271 556.317C941.905 556.317 942.781 555.441 943.657 552.807C948.043 530.87 950.676 508.057 951.557 486.119C951.557 474.71 951.557 465.058 950.68 455.406L950.676 455.415ZM797.115 759.027C791.849 765.17 787.463 771.312 784.83 779.207C783.954 781.841 783.073 784.474 781.321 787.107C774.302 802.902 765.526 816.944 751.484 827.472C733.932 841.51 713.752 847.652 690.939 841.51C663.735 834.491 646.188 810.797 648.821 784.474C649.697 777.455 650.578 770.436 655.84 765.17C658.473 762.537 661.106 761.66 663.739 762.537C667.249 763.413 670.758 765.17 671.639 769.555C672.515 773.065 670.763 776.574 667.253 778.331C661.111 781.841 660.235 787.107 661.111 794.126C661.987 797.635 662.868 800.268 664.62 802.902C669.887 809.92 676.029 815.187 684.8 818.696C700.595 824.839 715.513 822.206 729.551 815.187C759.388 800.268 769.04 766.927 751.488 737.966C738.327 716.905 719.899 703.744 697.086 695.849C675.148 688.83 654.087 688.83 632.15 697.606C613.722 704.624 597.052 716.033 583.89 730.952C578.624 737.094 573.362 743.237 569.852 750.256C555.815 777.459 554.934 805.539 566.343 833.619C576.871 860.823 594.423 882.76 618.117 900.307C620.75 902.94 623.383 902.94 626.893 902.064C713.765 874.86 785.72 825.724 843.632 756.403C863.812 732.709 880.488 706.386 894.525 678.306C893.649 679.182 891.892 679.182 891.016 680.063C888.383 681.82 885.749 682.696 883.116 684.449C852.403 705.51 822.571 730.08 797.124 759.036L797.115 759.027ZM719.895 681.806L719.018 682.683C718.142 683.559 718.142 684.44 719.895 685.316C727.794 687.949 734.813 692.335 741.832 697.601C742.416 698.185 743.002 698.771 743.589 699.358C744.465 700.234 745.346 701.115 746.222 701.115C747.979 701.991 748.855 702.872 749.731 702.872C750.608 702.872 751.488 701.996 753.241 700.239L754.998 698.482C787.463 663.383 826.076 637.937 869.95 618.632C888.378 610.733 908.558 604.595 928.743 600.205H929.619C931.376 600.205 932.253 599.328 933.129 597.571C935.762 587.919 938.395 577.391 941.028 566.858C912.072 570.368 883.992 576.51 856.789 586.163C802.386 605.467 757.631 639.689 719.899 681.811L719.895 681.806ZM763.769 712.52C783.073 690.582 805.01 671.278 829.581 655.484C858.537 635.303 890.126 621.261 924.349 612.485L926.982 611.609C921.715 625.647 916.453 639.689 910.311 652.85C910.311 653.727 909.435 653.727 909.435 654.607C909.435 654.607 908.558 655.484 907.678 655.484C862.927 673.911 826.071 703.744 792.725 737.09C790.092 739.723 787.459 743.233 784.826 745.866C783.069 747.623 782.192 747.623 781.316 744.99C777.807 735.338 771.664 727.438 765.522 719.543L763.765 717.786C762.888 716.029 762.008 714.276 763.765 712.52H763.769Z" fill="#32A3DC"/>
<path fill-rule="evenodd" clip-rule="evenodd" d="M950.676 455.415C950.676 451.906 950.676 448.397 947.167 446.64C941.9 443.13 937.514 440.497 932.248 438.74C918.21 433.474 905.044 434.354 892.759 442.249C883.983 448.392 876.088 454.535 868.189 461.553C862.922 466.82 857.661 472.082 853.27 477.348C850.637 479.981 847.128 483.491 844.495 486.124C840.109 490.51 834.843 494.023 828.7 494.023C808.52 496.657 790.968 490.514 775.174 477.353C772.54 474.719 769.907 472.086 768.155 467.701C766.398 464.191 768.155 461.558 769.912 458.925C771.669 456.292 774.297 457.168 776.931 458.049C779.564 458.925 782.197 460.682 784.83 462.434C798.868 474.719 815.543 476.472 833.09 472.962C847.128 469.453 855.027 459.801 861.17 447.516C872.579 424.702 859.413 394.866 833.966 388.723C813.786 383.457 794.478 387.847 776.054 395.742C754.993 405.394 737.446 419.436 719.895 434.35C690.058 459.797 661.102 486.124 635.655 515.956C602.309 556.321 568.967 596.686 537.378 638.804C496.137 692.33 447.872 739.714 389.96 776.57C361.88 794.121 332.048 809.035 299.578 817.811C272.374 824.83 244.294 827.463 215.338 827.463H214.462C213.586 827.463 212.705 827.463 210.953 828.339C328.538 914.331 456.648 940.659 596.171 911.703V910.826L593.538 908.193L589.152 903.807C565.458 879.237 548.787 850.281 542.644 816.935C535.625 780.96 542.644 748.49 563.705 719.534C577.743 700.23 597.052 687.068 620.741 682.678C634.779 680.045 647.945 678.293 661.982 677.412C680.41 675.655 697.957 671.269 713.757 660.741C720.775 656.355 727.794 650.213 733.937 644.07C734.813 643.194 735.694 642.313 736.57 642.313C759.383 621.252 783.954 603.705 812.034 589.663C852.399 569.483 895.397 560.707 939.271 556.317C941.905 556.317 942.781 555.441 943.657 552.807C948.043 530.87 950.676 508.057 951.557 486.119C951.557 474.71 951.557 465.058 950.68 455.406L950.676 455.415ZM797.115 759.027C791.849 765.17 787.463 771.312 784.83 779.207C783.954 781.841 783.073 784.474 781.321 787.107C774.302 802.902 765.526 816.944 751.484 827.472C733.932 841.51 713.752 847.652 690.939 841.51C663.735 834.491 646.188 810.797 648.821 784.474C649.697 777.455 650.578 770.436 655.84 765.17C658.473 762.537 661.106 761.66 663.739 762.537C667.249 763.413 670.758 765.17 671.639 769.555C672.515 773.065 670.763 776.574 667.253 778.331C661.111 781.841 660.235 787.107 661.111 794.126C661.987 797.635 662.868 800.268 664.62 802.902C669.887 809.92 676.029 815.187 684.8 818.696C700.595 824.839 715.513 822.206 729.551 815.187C759.388 800.268 769.04 766.927 751.488 737.966C738.327 716.905 719.899 703.744 697.086 695.849C675.148 688.83 654.087 688.83 632.15 697.606C613.722 704.624 597.052 716.033 583.89 730.952C578.624 737.094 573.362 743.237 569.852 750.256C555.815 777.459 554.934 805.539 566.343 833.619C576.871 860.823 594.423 882.76 618.117 900.307C620.75 902.94 623.383 902.94 626.893 902.064C713.765 874.86 785.72 825.724 843.632 756.403C863.812 732.709 880.488 706.386 894.525 678.306C893.649 679.182 891.892 679.182 891.016 680.063C888.383 681.82 885.749 682.696 883.116 684.449C852.403 705.51 822.571 730.08 797.124 759.036L797.115 759.027ZM719.895 681.806L719.018 682.683C718.142 683.559 718.142 684.44 719.895 685.316C727.794 687.949 734.813 692.335 741.832 697.601C742.416 698.185 743.002 698.771 743.589 699.358C744.465 700.234 745.346 701.115 746.222 701.115C747.979 701.991 748.855 702.872 749.731 702.872C750.608 702.872 751.488 701.996 753.241 700.239L754.998 698.482C787.463 663.383 826.076 637.937 869.95 618.632C888.378 610.733 908.558 604.595 928.743 600.205H929.619C931.376 600.205 932.253 599.328 933.129 597.571C935.762 587.919 938.395 577.391 941.028 566.858C912.072 570.368 883.992 576.51 856.789 586.163C802.386 605.467 757.631 639.689 719.899 681.811L719.895 681.806ZM763.769 712.52C783.073 690.582 805.01 671.278 829.581 655.484C858.537 635.303 890.126 621.261 924.349 612.485L926.982 611.609C921.715 625.647 916.453 639.689 910.311 652.85C910.311 653.727 909.435 653.727 909.435 654.607C909.435 654.607 908.558 655.484 907.678 655.484C862.927 673.911 826.071 703.744 792.725 737.09C790.092 739.723 787.459 743.233 784.826 745.866C783.069 747.623 782.192 747.623 781.316 744.99C777.807 735.338 771.664 727.438 765.522 719.543L763.765 717.786C762.888 716.029 762.008 714.276 763.765 712.52H763.769Z" fill="url(#paint0_linear_1206_5658)"/>
<path d="M660.226 186.907C659.35 186.031 658.469 186.907 657.593 187.783C654.083 190.416 650.574 193.926 647.064 196.559C630.394 214.11 618.985 234.291 611.089 257.104C604.071 274.656 600.561 293.96 596.171 312.388C593.538 323.796 587.395 329.939 575.11 332.568C570.724 333.444 567.211 333.444 562.825 333.444C550.54 332.568 539.131 329.058 530.359 320.283C524.217 314.14 525.093 307.121 530.359 300.979C532.116 299.222 534.745 297.469 537.378 296.593C544.397 293.96 551.416 293.083 558.439 293.083C560.196 293.083 561.072 292.207 561.949 290.45C563.706 284.308 565.458 277.289 567.215 271.146C578.624 230.781 595.295 192.173 619.865 157.074C621.622 154.441 622.498 151.808 623.375 149.175C625.132 140.399 627.76 130.747 629.517 121.971C633.027 107.053 636.536 91.2583 640.046 75.4636C639.169 75.4636 639.169 76.3399 638.289 76.3399C619.861 93.8914 600.557 110.562 582.129 128.114C581.253 128.99 580.372 129.871 579.496 131.623C569.844 150.927 560.192 170.231 547.03 187.783C530.359 209.72 511.932 229.9 492.628 250.085C489.994 252.718 489.994 253.595 491.751 256.228C497.018 263.247 499.651 271.146 498.77 279.922C498.77 288.698 490.871 294.84 482.099 293.083C479.466 292.207 476.833 291.327 474.2 290.45C460.158 283.431 451.386 272.022 446.996 257.985C444.363 249.209 446.12 241.314 453.139 235.171C457.524 230.786 461.915 226.396 466.3 222.01C481.219 207.972 496.137 193.054 507.541 176.378C518.95 158.827 528.602 140.404 531.236 119.343C531.236 117.586 532.112 115.833 531.236 114.957C529.479 114.081 528.602 116.714 527.726 117.59C503.156 148.303 473.323 173.75 438.22 193.054C421.549 202.706 403.998 211.482 386.446 219.377C383.813 220.253 383.813 221.134 384.689 223.762C387.323 229.029 389.956 235.171 391.708 241.314C398.727 257.109 405.746 273.779 415.402 288.698C427.688 307.126 443.482 322.92 459.277 337.839C461.034 339.596 461.91 341.348 461.034 343.105C460.158 347.491 458.401 351.881 456.648 356.266C448.623 370.709 437.232 387.06 430.617 399.009C436.414 397.948 442.61 399.058 447.881 402.603C452.501 405.708 455.655 410.17 457.187 415.104C462.027 406.908 477.669 383.537 485.604 370.309C487.361 366.799 489.99 364.166 493.504 361.533C495.261 359.776 497.013 358.9 499.646 360.657C501.403 361.533 503.156 361.533 505.789 362.414C528.602 369.432 552.297 374.699 576.867 374.699C597.047 374.699 616.356 371.189 636.536 369.432C638.293 369.432 639.169 367.675 638.293 365.923C636.536 350.128 635.66 335.21 635.66 319.415C634.784 289.579 636.536 259.746 643.559 230.79C647.069 217.629 651.459 204.467 655.845 191.301C660.23 189.544 661.111 187.792 660.23 186.916L660.226 186.907Z" fill="white"/>
<defs>
<linearGradient id="paint0_linear_1206_5658" x1="581.252" y1="387.797" x2="581.252" y2="922.99" gradientUnits="userSpaceOnUse">
<stop stop-color="#33EEFF"/>
<stop offset="1" stop-color="#33EEFF" stop-opacity="0"/>
</linearGradient>
</defs>
</svg>
