<svg width="104" height="104" viewBox="0 0 104 104" fill="none" xmlns="http://www.w3.org/2000/svg">
<g clip-path="url(#clip0_79_259)">
<path d="M52 104C80.7188 104 104 80.7188 104 52C104 23.2812 80.7188 0 52 0C23.2812 0 0 23.2812 0 52C0 80.7188 23.2812 104 52 104Z" fill="#060910"/>
<mask id="mask0_79_259" style="mask-type:alpha" maskUnits="userSpaceOnUse" x="0" y="0" width="104" height="104">
<path d="M52 104C80.7188 104 104 80.7188 104 52C104 23.2812 80.7188 0 52 0C23.2812 0 0 23.2812 0 52C0 80.7188 23.2812 104 52 104Z" fill="#060910"/>
</mask>
<g mask="url(#mask0_79_259)">
<path d="M46.0347 58.6077C45.5792 58.4139 44.9909 58.4445 44.6584 58.109C44.3259 57.7735 44.194 57.2144 43.9584 56.767C41.3797 51.834 37.6819 48.1303 32.3761 46.1651C30.3371 45.4099 28.2758 44.8105 26.0817 44.7852C25.5815 44.7792 25.088 44.8254 24.6176 45.0088C23.8512 45.307 23.4724 45.978 23.6141 46.7876C23.6482 47.0464 23.7162 47.2995 23.8161 47.5406C23.9652 47.8611 24.0144 48.2056 24.0361 48.553C24.1181 49.8889 23.2712 50.9811 21.9613 51.2368C21.3359 51.3584 20.6893 51.3084 20.0901 51.0922C18.6833 50.5994 17.2422 50.2259 15.8063 49.8308C13.7681 49.2694 11.9297 49.6146 10.2754 50.9491C8.89319 52.0673 7.54381 53.2184 6.26451 54.453C4.15471 56.4905 2.57571 58.932 0.955715 61.3445C0.861034 61.4861 0.870726 61.6218 0.893092 61.7694C1.27801 64.3724 1.87136 66.9403 2.66741 69.4482C5.2777 77.5937 9.69039 84.6055 15.9055 90.4836C16.0397 90.6111 16.1657 90.7393 16.367 90.7766C17.3436 90.9593 18.321 91.1568 19.3125 91.2239C24.3477 91.5572 29.2785 91.0912 34.0237 89.2461C35.3892 88.7147 36.6898 88.0297 37.9004 87.2041C39.0007 86.4644 39.865 85.4238 40.3904 84.2064C41.115 82.5491 40.3464 81.0506 38.5885 80.6458C36.677 80.2052 34.2056 81.2176 33.0881 82.9249C32.7086 83.5049 32.3933 84.1274 32.0332 84.7215C31.4465 85.6907 30.5742 86.261 29.4723 86.4772C28.6329 86.642 27.7882 86.5518 26.948 86.4646C22.7732 86.0262 19.428 84.149 17.017 80.6831C14.0074 76.3591 14.4652 71.2561 17.5941 67.3459C18.9025 65.711 20.5843 65.2711 22.5584 65.7505C24.7488 66.282 26.0467 68.2584 25.6762 70.4741C25.6441 70.6627 25.6397 70.8938 25.3839 70.9407C25.1439 70.9855 24.9814 70.8587 24.8688 70.6574C24.7898 70.5173 24.6861 70.3838 24.6399 70.2333C24.3365 69.2343 23.6096 68.7996 22.627 68.6677C21.5035 68.5186 20.4382 68.5476 19.478 69.2991C17.2929 71.0138 16.9432 75.2386 20.1258 76.9227C21.3607 77.5775 22.7273 77.9455 24.124 77.9993C26.8041 78.1163 29.1369 77.3432 30.9962 75.3236C33.3632 72.7531 34.1579 69.7106 33.6286 66.3245C33.0993 62.9384 31.2914 60.3999 28.1915 58.8239C26.5119 57.9703 24.7219 57.6639 22.8656 57.6117C21.3634 57.5692 19.8962 57.6863 18.4887 58.2939C15.4366 59.6186 13.0994 61.6576 11.7992 64.7858C11.4563 65.6103 11.1141 66.4341 10.8136 67.2758C9.91902 69.777 9.6402 72.3184 10.2664 74.9285C10.6489 76.5209 10.9776 78.129 11.7575 79.5924C11.8417 79.7512 11.9148 79.9175 11.7627 80.0725C11.5972 80.2425 11.4004 80.2037 11.2102 80.1202C11.132 80.0809 11.0597 80.0307 10.9955 79.9711C10.6623 79.6871 10.3633 79.3703 10.1658 78.9759C9.48886 77.6243 8.97818 76.2123 8.78957 74.7086C8.06195 68.9085 9.62454 63.6966 12.9048 58.9402C13.7644 57.6937 14.9177 56.7917 16.3014 56.1818C17.8565 55.4945 19.5071 55.1381 21.1546 54.7743C22.154 54.5649 23.1813 54.5238 24.1941 54.6528C25.9089 54.8617 27.5914 55.2805 29.204 55.9C32.7489 57.233 34.9101 59.8661 36.1618 63.3373C36.5033 64.2833 36.6419 65.2883 36.8775 66.2656C36.9521 66.5802 37.0475 66.8859 37.2667 67.1401C38.0189 68.0131 38.9746 68.2644 40.0594 67.9982C41.0986 67.7432 41.8874 66.7778 42.0275 65.7013C42.1095 65.0654 42.0119 64.4458 41.8501 63.7943C43.1972 64.1051 44.1671 64.8581 44.9313 65.9055C45.4576 66.6257 45.5635 67.4227 45.3786 68.2793C45.2548 68.8563 44.9216 69.2037 44.3558 69.3923C43.6699 69.6204 42.9654 69.6204 42.2609 69.6764C41.5273 69.7345 40.8653 70.0066 40.4388 70.6291C38.5997 73.313 40.1869 76.3263 42.5486 76.9719C45.4405 77.7629 48.0162 77.1099 50.1976 75.0619C51.6305 73.7155 52.3022 71.9673 52.6302 70.0618C52.9791 68.0392 52.9866 66.0442 52.1024 64.1454C50.8559 61.4645 48.7096 59.7409 46.0347 58.6077Z" fill="white"/>
<path fill-rule="evenodd" clip-rule="evenodd" d="M21.7131 42.052C22.8203 42.6524 23.3343 43.494 23.2133 44.617C23.0852 45.8161 22.3261 46.4935 21.255 46.8841C20.231 47.2542 19.1945 47.1905 18.1627 46.9226C17.9408 46.865 17.7194 46.8059 17.498 46.7467L17.498 46.7467L17.4979 46.7467C16.4081 46.4556 15.3202 46.165 14.1817 46.0644C12.7429 45.9387 11.3905 46.1501 10.1033 46.7835C8.71865 47.464 7.44247 48.3033 6.33131 49.3767C4.42154 51.2277 2.61436 53.1792 0.806962 55.131L0.359012 55.6146C0.337896 55.6375 0.317962 55.6619 0.297684 55.6867C0.227404 55.7726 0.152988 55.8636 0.01089 55.9148C-0.132536 53.7084 -0.132536 51.4951 0.01089 49.2887C0.0220965 49.2371 0.0278907 49.1844 0.0281783 49.1315C-0.0904818 48.3261 0.326007 47.9237 1.00968 47.5457C4.05791 45.8594 7.10613 44.1895 10.431 43.0893C12.9778 42.2469 15.5656 41.6284 18.2429 41.4391C19.4429 41.3542 20.6224 41.4611 21.7131 42.052ZM104.087 51.6833L104.087 51.64C104.085 51.2988 104.084 50.9271 103.735 50.7111C103.186 50.3535 102.604 50.0488 101.998 49.8011C100.435 49.1905 98.926 49.2581 97.4982 50.1988C96.5112 50.8478 95.5784 51.5598 94.7588 52.4203C94.1893 53.0183 93.6093 53.6062 93.0291 54.1941C92.699 54.5287 92.3689 54.8632 92.0406 55.1998C91.5385 55.7137 90.9318 56.0642 90.2261 56.1428C87.9354 56.3966 85.9041 55.7608 84.1595 54.2497C83.831 53.9645 83.5751 53.6051 83.413 53.2014C83.2621 52.8266 83.3957 52.5083 83.6377 52.2246C83.8798 51.9409 84.1658 51.9889 84.4676 52.0965C84.7923 52.2008 85.0924 52.3704 85.3493 52.5947C86.939 54.0375 88.825 54.2214 90.7966 53.7609C92.3534 53.3986 93.2995 52.2285 93.9871 50.8761C95.3167 48.2593 93.7514 44.9093 90.909 44.2178C88.6301 43.6677 86.4785 44.074 84.3803 45.0366C82.0079 46.1258 79.9632 47.6747 78.0151 49.3815C74.6746 52.3095 71.3607 55.265 68.4917 58.6716C64.6626 63.2163 60.9336 67.8443 57.3046 72.5556C52.5841 78.6725 47.1815 84.0287 40.6277 88.1842C37.4129 90.2226 34.0558 91.9153 30.3648 92.907C27.2403 93.7462 24.0514 93.9867 20.835 94.0126C20.8117 94.0126 20.7879 94.0115 20.7635 94.0103C20.6509 94.0047 20.525 93.9985 20.3635 94.1038C33.5026 103.711 47.9729 106.739 63.8372 103.455C63.8297 103.413 63.8178 103.372 63.8018 103.332C63.7026 103.232 63.6032 103.132 63.5037 103.032C63.3449 102.873 63.1861 102.713 63.0286 102.553C60.3088 99.783 58.4983 96.5312 57.7509 92.6995C56.9651 88.6525 57.7195 84.9552 60.1579 81.6123C61.7854 79.3813 63.893 77.8976 66.6403 77.4018C68.1993 77.1197 69.7726 76.9303 71.3458 76.7582C73.429 76.5327 75.4093 76.0203 77.1939 74.8722C78.0348 74.3327 78.7588 73.6519 79.4813 72.9726L79.4816 72.9723C79.5693 72.8899 79.6569 72.8075 79.7447 72.7253C82.2856 70.3359 85.1584 68.3262 88.2741 66.7585C92.8146 64.4796 97.6789 63.4415 102.699 63.0117C103.006 62.985 103.107 62.8852 103.165 62.5873C103.646 60.0804 103.944 57.5418 104.057 54.9915C104.106 53.9071 104.101 52.8187 104.087 51.7327L104.087 51.6833ZM86.627 86.1647C86.0219 86.8491 85.497 87.5611 85.2456 88.4554C85.1517 88.7552 85.0332 89.0467 84.8911 89.3268C84.07 91.0698 83.0837 92.6996 81.5482 93.9177C79.5137 95.5286 77.2631 96.2217 74.6817 95.5318C71.6169 94.7121 69.6524 92.0694 69.9085 89.0636C69.9777 88.2636 70.1262 87.4762 70.7132 86.857C70.9726 86.5827 71.2704 86.4185 71.6562 86.5324C72.0798 86.6566 72.446 86.8688 72.5206 87.3426C72.5914 87.7835 72.3941 88.1332 72.0193 88.3713C71.36 88.7901 71.228 89.4023 71.3639 90.1174C71.4358 90.4781 71.5878 90.8181 71.8087 91.1122C72.4012 91.9224 73.1446 92.5519 74.0774 92.9322C75.8447 93.6536 77.557 93.3636 79.1939 92.5393C82.6232 90.8105 83.7085 87.0228 81.7015 83.7632C80.2469 81.3994 78.0945 79.9126 75.4934 79.0215C73.0228 78.1767 70.5781 78.2734 68.1624 79.2399C66.0727 80.066 64.1894 81.3401 62.6451 82.9726C62.0195 83.6269 61.4915 84.3679 61.0774 85.1729C59.4908 88.2762 59.3769 91.4596 60.6664 94.6634C61.8955 97.7195 63.8805 100.218 66.4973 102.221C66.8305 102.476 67.1047 102.546 67.5188 102.413C77.3323 99.2867 85.5379 93.7718 92.1357 85.8684C94.4088 83.161 96.3602 80.1991 97.9508 77.042C97.8135 77.1145 97.6746 77.1848 97.5358 77.2551C97.2234 77.4133 96.9109 77.5716 96.6149 77.7555C92.8928 80.0558 89.5278 82.8889 86.627 86.1647ZM77.8713 77.3556C77.8344 77.3927 77.8008 77.4329 77.7708 77.4758C77.6765 77.6204 77.7126 77.7202 77.8792 77.7713C78.7983 78.0537 79.5768 78.5891 80.3553 79.1246C80.4281 79.1746 80.5009 79.2247 80.5738 79.2746C80.6937 79.3562 80.7903 79.4268 80.8704 79.4853C81.0557 79.6206 81.1524 79.6912 81.2429 79.6841C81.3417 79.6763 81.4331 79.5761 81.6244 79.3667C81.6789 79.307 81.7415 79.2384 81.8146 79.1606C85.5206 75.2204 89.9086 72.2657 94.842 70.0882C96.9803 69.1452 99.216 68.4984 101.493 67.9868C101.505 67.9842 101.517 67.9817 101.529 67.9793C101.536 67.9777 101.544 67.9761 101.552 67.9746C101.702 67.944 101.843 67.9154 101.905 67.7016C102.237 66.5606 102.55 65.4164 102.815 64.2133C99.5146 64.592 96.3453 65.2639 93.3018 66.4285C87.2321 68.7499 82.2036 72.5675 77.8713 77.3556ZM82.8906 80.8619C85.079 78.3887 87.5722 76.2029 90.3104 74.3568C93.6243 72.1069 97.188 70.4316 101.087 69.487L101.344 69.4265C100.795 71.0626 100.176 72.6004 99.4976 74.1147C99.4679 74.1728 99.4267 74.2241 99.3764 74.2656C99.3261 74.3071 99.2679 74.3379 99.2052 74.356C94.1154 76.4133 89.989 79.8324 86.1439 83.6429C85.8288 83.9557 85.5381 84.2952 85.2489 84.6331C85.054 84.8609 84.9259 84.8767 84.8253 84.5623C84.4686 83.4569 83.7608 82.5659 83.056 81.6786C83.0047 81.6141 82.9535 81.5496 82.9024 81.485C82.7099 81.2414 82.6784 81.1023 82.8906 80.8619Z" fill="#32A3DC"/>
<path fill-rule="evenodd" clip-rule="evenodd" d="M21.7131 42.052C22.8203 42.6524 23.3343 43.494 23.2133 44.617C23.0852 45.8161 22.3261 46.4935 21.255 46.8841C20.231 47.2542 19.1945 47.1905 18.1627 46.9226C17.9408 46.865 17.7194 46.8059 17.498 46.7467L17.498 46.7467L17.4979 46.7467C16.4081 46.4556 15.3202 46.165 14.1817 46.0644C12.7429 45.9387 11.3905 46.1501 10.1033 46.7835C8.71865 47.464 7.44247 48.3033 6.33131 49.3767C4.42154 51.2277 2.61436 53.1792 0.806962 55.131L0.359012 55.6146C0.337896 55.6375 0.317962 55.6619 0.297684 55.6867C0.227404 55.7726 0.152988 55.8636 0.01089 55.9148C-0.132536 53.7084 -0.132536 51.4951 0.01089 49.2887C0.0220965 49.2371 0.0278907 49.1844 0.0281783 49.1315C-0.0904818 48.3261 0.326007 47.9237 1.00968 47.5457C4.05791 45.8594 7.10613 44.1895 10.431 43.0893C12.9778 42.2469 15.5656 41.6284 18.2429 41.4391C19.4429 41.3542 20.6224 41.4611 21.7131 42.052ZM104.087 51.6833L104.087 51.64C104.085 51.2988 104.084 50.9271 103.735 50.7111C103.186 50.3535 102.604 50.0488 101.998 49.8011C100.435 49.1905 98.926 49.2581 97.4982 50.1988C96.5112 50.8478 95.5784 51.5598 94.7588 52.4203C94.1893 53.0183 93.6093 53.6062 93.0291 54.1941C92.699 54.5287 92.3689 54.8632 92.0406 55.1998C91.5385 55.7137 90.9318 56.0642 90.2261 56.1428C87.9354 56.3966 85.9041 55.7608 84.1595 54.2497C83.831 53.9645 83.5751 53.6051 83.413 53.2014C83.2621 52.8266 83.3957 52.5083 83.6377 52.2246C83.8798 51.9409 84.1658 51.9889 84.4676 52.0965C84.7923 52.2008 85.0924 52.3704 85.3493 52.5947C86.939 54.0375 88.825 54.2214 90.7966 53.7609C92.3534 53.3986 93.2995 52.2285 93.9871 50.8761C95.3167 48.2593 93.7514 44.9093 90.909 44.2178C88.6301 43.6677 86.4785 44.074 84.3803 45.0366C82.0079 46.1258 79.9632 47.6747 78.0151 49.3815C74.6746 52.3095 71.3607 55.265 68.4917 58.6716C64.6626 63.2163 60.9336 67.8443 57.3046 72.5556C52.5841 78.6725 47.1815 84.0287 40.6277 88.1842C37.4129 90.2226 34.0558 91.9153 30.3648 92.907C27.2403 93.7462 24.0514 93.9867 20.835 94.0126C20.8117 94.0126 20.7879 94.0115 20.7635 94.0103C20.6509 94.0047 20.525 93.9985 20.3635 94.1038C33.5026 103.711 47.9729 106.739 63.8372 103.455C63.8297 103.413 63.8178 103.372 63.8018 103.332C63.7026 103.232 63.6032 103.132 63.5037 103.032C63.3449 102.873 63.1861 102.713 63.0286 102.553C60.3088 99.783 58.4983 96.5312 57.7509 92.6995C56.9651 88.6525 57.7195 84.9552 60.1579 81.6123C61.7854 79.3813 63.893 77.8976 66.6403 77.4018C68.1993 77.1197 69.7726 76.9303 71.3458 76.7582C73.429 76.5327 75.4093 76.0203 77.1939 74.8722C78.0348 74.3327 78.7588 73.6519 79.4813 72.9726L79.4816 72.9723C79.5693 72.8899 79.6569 72.8075 79.7447 72.7253C82.2856 70.3359 85.1584 68.3262 88.2741 66.7585C92.8146 64.4796 97.6789 63.4415 102.699 63.0117C103.006 62.985 103.107 62.8852 103.165 62.5873C103.646 60.0804 103.944 57.5418 104.057 54.9915C104.106 53.9071 104.101 52.8187 104.087 51.7327L104.087 51.6833ZM86.627 86.1647C86.0219 86.8491 85.497 87.5611 85.2456 88.4554C85.1517 88.7552 85.0332 89.0467 84.8911 89.3268C84.07 91.0698 83.0837 92.6996 81.5482 93.9177C79.5137 95.5286 77.2631 96.2217 74.6817 95.5318C71.6169 94.7121 69.6524 92.0694 69.9085 89.0636C69.9777 88.2636 70.1262 87.4762 70.7132 86.857C70.9726 86.5827 71.2704 86.4185 71.6562 86.5324C72.0798 86.6566 72.446 86.8688 72.5206 87.3426C72.5914 87.7835 72.3941 88.1332 72.0193 88.3713C71.36 88.7901 71.228 89.4023 71.3639 90.1174C71.4358 90.4781 71.5878 90.8181 71.8087 91.1122C72.4012 91.9224 73.1446 92.5519 74.0774 92.9322C75.8447 93.6536 77.557 93.3636 79.1939 92.5393C82.6232 90.8105 83.7085 87.0228 81.7015 83.7632C80.2469 81.3994 78.0945 79.9126 75.4934 79.0215C73.0228 78.1767 70.5781 78.2734 68.1624 79.2399C66.0727 80.066 64.1894 81.3401 62.6451 82.9726C62.0195 83.6269 61.4915 84.3679 61.0774 85.1729C59.4908 88.2762 59.3769 91.4596 60.6664 94.6634C61.8955 97.7195 63.8805 100.218 66.4973 102.221C66.8305 102.476 67.1047 102.546 67.5188 102.413C77.3323 99.2867 85.5379 93.7718 92.1357 85.8684C94.4088 83.161 96.3602 80.1991 97.9508 77.042C97.8135 77.1145 97.6746 77.1848 97.5358 77.2551C97.2234 77.4133 96.9109 77.5716 96.6149 77.7555C92.8928 80.0558 89.5278 82.8889 86.627 86.1647ZM77.8713 77.3556C77.8344 77.3927 77.8008 77.4329 77.7708 77.4758C77.6765 77.6204 77.7126 77.7202 77.8792 77.7713C78.7983 78.0537 79.5768 78.5891 80.3553 79.1246C80.4281 79.1746 80.5009 79.2247 80.5738 79.2746C80.6937 79.3562 80.7903 79.4268 80.8704 79.4853C81.0557 79.6206 81.1524 79.6912 81.2429 79.6841C81.3417 79.6763 81.4331 79.5761 81.6244 79.3667C81.6789 79.307 81.7415 79.2384 81.8146 79.1606C85.5206 75.2204 89.9086 72.2657 94.842 70.0882C96.9803 69.1452 99.216 68.4984 101.493 67.9868C101.505 67.9842 101.517 67.9817 101.529 67.9793C101.536 67.9777 101.544 67.9761 101.552 67.9746C101.702 67.944 101.843 67.9154 101.905 67.7016C102.237 66.5606 102.55 65.4164 102.815 64.2133C99.5146 64.592 96.3453 65.2639 93.3018 66.4285C87.2321 68.7499 82.2036 72.5675 77.8713 77.3556ZM82.8906 80.8619C85.079 78.3887 87.5722 76.2029 90.3104 74.3568C93.6243 72.1069 97.188 70.4316 101.087 69.487L101.344 69.4265C100.795 71.0626 100.176 72.6004 99.4976 74.1147C99.4679 74.1728 99.4267 74.2241 99.3764 74.2656C99.3261 74.3071 99.2679 74.3379 99.2052 74.356C94.1154 76.4133 89.989 79.8324 86.1439 83.6429C85.8288 83.9557 85.5381 84.2952 85.2489 84.6331C85.054 84.8609 84.9259 84.8767 84.8253 84.5623C84.4686 83.4569 83.7608 82.5659 83.056 81.6786C83.0047 81.6141 82.9535 81.5496 82.9024 81.485C82.7099 81.2414 82.6784 81.1023 82.8906 80.8619Z" fill="url(#paint0_linear_79_259)"/>
</g>
<path d="M71.0759 21.2907C70.956 21.2092 70.8475 21.3338 70.7499 21.4039C70.3244 21.7155 69.9258 22.0622 69.5583 22.4405C67.6271 24.3892 66.379 26.742 65.442 29.2794C64.6923 31.3157 64.2801 33.4469 63.7735 35.5498C63.461 36.8445 62.7376 37.5706 61.416 37.8043C60.9516 37.8876 60.4795 37.919 60.0082 37.898C58.6159 37.8306 57.3623 37.4029 56.3621 36.4006C55.6993 35.7364 55.7289 34.8844 56.3883 34.2182C56.6059 33.9993 56.8787 33.8659 57.1576 33.7467C57.9275 33.4146 58.7358 33.3169 59.5629 33.3836C59.8061 33.4031 59.8997 33.3216 59.9583 33.098C60.1604 32.3517 60.3814 31.6101 60.5962 30.8671C61.9286 26.2584 63.7668 21.8841 66.5703 17.9571C66.7592 17.6941 66.8897 17.3937 66.9529 17.0761C67.1671 16.0442 67.4075 15.0176 67.6365 13.9884C68.0225 12.2498 68.4071 10.5106 68.8066 8.70813C68.7546 8.73901 68.7043 8.77251 68.6557 8.80849C66.5191 10.7632 64.3827 12.7178 62.2465 14.6721C62.1348 14.7816 62.0448 14.9111 61.9811 15.054C60.8859 17.2404 59.7738 19.4175 58.3155 21.3938C56.4584 23.9103 54.3602 26.2166 52.1629 28.4348C51.9023 28.6975 51.8935 28.8598 52.0956 29.1575C52.6459 29.9746 52.9665 30.8792 52.9221 31.8802C52.8776 32.8905 52.0329 33.5365 51.0441 33.3264C50.7478 33.2616 50.4613 33.1581 50.192 33.0185C48.6313 32.223 47.6539 30.9378 47.1488 29.2943C46.845 28.3048 47.0895 27.4082 47.8358 26.6673C48.339 26.1708 48.8529 25.6852 49.3696 25.2029C51.0865 23.6004 52.753 21.9576 54.0752 19.9941C55.4056 18.0171 56.416 15.9141 56.7878 13.5384C56.814 13.3687 56.9225 13.1269 56.746 13.0386C56.5439 12.9369 56.4631 13.2009 56.3634 13.3262C53.5647 16.8578 50.1563 19.6633 46.2273 21.8498C44.3157 22.9141 42.3636 23.8973 40.3711 24.7994C40.1132 24.916 40.0418 25.0345 40.1691 25.3093C40.4675 25.9492 40.7241 26.608 41.0131 27.2519C41.8308 29.0706 42.5987 30.9163 43.7242 32.5793C45.1388 34.6675 46.8726 36.4639 48.7492 38.1304C48.9513 38.3116 49.0186 38.4975 48.9775 38.7487C48.8897 39.2703 48.7097 39.7721 48.4461 40.2306C47.4189 42.0459 44.4774 47.2475 43.4474 49.0581C43.4013 49.1244 43.3765 49.2033 43.3765 49.2841C43.3765 49.3649 43.4013 49.4438 43.4474 49.5101C44.0403 50.5389 44.5491 51.6138 44.9691 52.7244C45.0216 52.8646 45.0277 53.0316 45.1637 53.1502C45.2271 53.0451 45.285 52.9481 45.3416 52.8538C46.8405 50.3274 50.2612 44.421 51.7588 41.8937C51.9909 41.5216 52.2813 41.1894 52.6189 40.9096C52.8345 40.721 53.0628 40.6401 53.3532 40.7749C53.5633 40.8759 53.7991 40.9237 54.0267 40.9938C56.6416 41.8021 59.2962 42.4083 62.0532 42.3692C64.3239 42.3376 66.5716 42.019 68.8227 41.7576C69.0558 41.7307 69.0827 41.602 69.0632 41.4067C68.884 39.6554 68.783 37.8939 68.7163 36.1332C68.5883 32.7417 68.8167 29.3805 69.6277 26.0752C69.9995 24.559 70.539 23.0953 71.0617 21.6295C71.1001 21.5191 71.2086 21.3837 71.0759 21.2907Z" fill="white"/>
</g>
<defs>
<linearGradient id="paint0_linear_79_259" x1="52" y1="41.4135" x2="52" y2="104.732" gradientUnits="userSpaceOnUse">
<stop stop-color="#33EEFF"/>
<stop offset="1" stop-color="#33EEFF" stop-opacity="0"/>
</linearGradient>
<clipPath id="clip0_79_259">
<rect width="104" height="104" fill="white"/>
</clipPath>
</defs>
</svg>
